<?xml version="1.0"?>
<svg version="1.1" xmlns="http://www.w3.org/2000/svg" width="200px" height="43px" style=""><path fill="#c73272" d="M67.276,34.604c0,0.56-0.14,0.784-0.672,1.064c-1.54,0.784-4.144,1.288-6.272,1.288c-5.824,0-9.128-4.032-9.128-9.968c0-5.852,3.78-10.108,9.492-10.108c1.792,0,3.444,0.308,5.124,1.064c0.308,0.14,0.392,0.308,0.392,0.504c0,0.112-0.056,0.224-0.084,0.336l-0.644,1.68c-0.112,0.28-0.224,0.392-0.42,0.392c-0.112,0-0.252-0.056-0.392-0.112c-0.924-0.392-2.52-0.812-3.808-0.812c-1.512,0-2.968,0.56-3.948,1.596c-1.176,1.232-1.848,3.052-1.848,5.348c0,4.34,2.044,7.056,5.404,7.056c1.148,0,2.408-0.168,3.164-0.476l0-5.348l-2.492,0c-0.392,0-0.616-0.14-0.616-0.616l0-1.708c0-0.448,0.224-0.56,0.644-0.56l5.432,0c0.476,0,0.672,0.14,0.672,0.644l0,8.736z M85.63,36.088c0,0.336-0.224,0.532-0.56,0.532l-1.344,0c-1.456,0-2.1-0.7-2.296-1.652l-0.056,0c-0.7,1.036-2.52,1.988-4.06,1.988c-3.948,0-5.74-3.248-5.74-6.888c0-4.844,2.912-7.392,6.048-7.392c1.484,0,2.884,0.672,3.584,1.624l0.056-0.756c0.028-0.308,0.252-0.504,0.588-0.504l1.96,0c0.364,0,0.588,0.196,0.588,0.616l0,9.716c0,0.392,0.056,0.672,0.168,0.812c0.084,0.084,0.196,0.112,0.336,0.112l0.224,0c0.336,0,0.504,0.112,0.504,0.476l0,1.316z M81.01,32.28l0-5.404c-0.56-0.812-1.708-1.428-2.772-1.428c-1.708,0-3.164,1.456-3.164,4.396c0,2.352,0.896,4.34,2.968,4.34c1.372,0,2.548-1.036,2.968-1.904z M101.996,23.432c0,0.084-0.028,0.168-0.056,0.28l-5.516,14.504c-1.26,3.332-2.828,4.508-6.188,4.508c-0.532,0-1.008-0.028-1.484-0.14c-0.308-0.056-0.42-0.224-0.42-0.476c0-0.084,0.028-0.14,0.028-0.252l0.196-1.456c0.056-0.364,0.196-0.504,0.504-0.504l0.168,0c0.336,0.028,0.672,0.084,0.952,0.084c1.736,0,2.464-0.616,3.024-1.932l0.532-1.26l-5.096-13.132c-0.028-0.084-0.056-0.14-0.056-0.224c0-0.224,0.168-0.392,0.42-0.392l2.688,0c0.392,0,0.588,0.196,0.7,0.476l3.108,9.268l2.94-9.1c0.14-0.448,0.364-0.644,0.84-0.644l2.268,0c0.28,0,0.448,0.168,0.448,0.392z M118.978,36.088c0,0.336-0.224,0.532-0.56,0.532l-1.344,0c-1.456,0-2.1-0.7-2.296-1.652l-0.056,0c-0.7,1.036-2.52,1.988-4.06,1.988c-3.948,0-5.74-3.248-5.74-6.888c0-4.844,2.912-7.392,6.048-7.392c1.484,0,2.884,0.672,3.584,1.624l0.056-0.756c0.028-0.308,0.252-0.504,0.588-0.504l1.96,0c0.364,0,0.588,0.196,0.588,0.616l0,9.716c0,0.392,0.056,0.672,0.168,0.812c0.084,0.084,0.196,0.112,0.336,0.112l0.224,0c0.336,0,0.504,0.112,0.504,0.476l0,1.316z M114.358,32.28l0-5.404c-0.56-0.812-1.708-1.428-2.772-1.428c-1.708,0-3.164,1.456-3.164,4.396c0,2.352,0.896,4.34,2.968,4.34c1.372,0,2.548-1.036,2.968-1.904z M131.536,35.78c0,0.28-0.14,0.42-0.42,0.532c-0.868,0.364-2.016,0.644-3.136,0.644c-1.428,0-2.66-0.364-3.36-1.176c-0.868-0.98-0.896-2.128-0.896-4.172l0-6.244l-1.316,0c-0.532,0-0.616-0.112-0.616-0.7l0-1.064c0-0.336,0.168-0.56,0.504-0.56l1.428,0l0-3.052c0-0.476,0.252-0.616,0.7-0.672l2.016-0.252l0.14,0c0.364,0,0.532,0.196,0.532,0.616l0,3.36l3.164,0c0.336,0,0.532,0.112,0.532,0.476l0,1.316c0,0.336-0.224,0.532-0.56,0.532l-3.136,0l0,6.412c0,0.84,0.056,1.456,0.364,1.904c0.252,0.364,0.644,0.588,1.316,0.588c0.7,0,1.288-0.168,1.792-0.336c0.112-0.028,0.196-0.056,0.28-0.056c0.196,0,0.308,0.112,0.364,0.336l0.28,1.4c0.028,0.084,0.028,0.112,0.028,0.168z M143.058,23.152c0,0.084,0,0.168-0.028,0.252l-0.308,1.988c-0.028,0.252-0.168,0.364-0.392,0.364l-0.112,0c-0.224-0.056-0.504-0.084-0.756-0.084c-0.952,0-1.988,0.504-2.688,1.344l0,8.904c0,0.448-0.196,0.7-0.672,0.7l-2.044,0c-0.448,0-0.672-0.224-0.672-0.7l0-8.736l0-3.444c0-0.56,0.28-0.7,0.7-0.7l1.792,0c0.448,0,0.7,0.14,0.7,0.532l0.028,0.896c0.868-1.092,1.82-1.792,3.388-1.792c0.224,0,0.532,0.056,0.784,0.112c0.196,0.056,0.28,0.14,0.28,0.364z M150.492,19.484c0,1.092-0.952,1.764-1.876,1.764s-1.904-0.616-1.904-1.736s0.924-1.792,1.904-1.792c0.952,0,1.876,0.644,1.876,1.764z M150.324,35.92c0,0.504-0.224,0.7-0.7,0.7l-1.96,0c-0.504,0-0.728-0.196-0.728-0.7l0-12.236c0-0.476,0.28-0.644,0.728-0.644l1.96,0c0.448,0,0.7,0.14,0.7,0.644l0,12.236z"/><path fill="#" d=""/></svg>
